<svg viewBox="0 0 1440 900" xmlns="http://www.w3.org/2000/svg" font-family="Georgia, serif">
  <rect width="1440" height="900" fill="#f7f3ec"/>
  <rect width="560" height="900" fill="#1a2e1a"/>
  <ellipse cx="120" cy="720" rx="130" ry="52" fill="#2d4a2d" transform="rotate(-30 120 720)"/>
  <ellipse cx="90" cy="660" rx="100" ry="42" fill="#243e24" transform="rotate(-15 90 660)"/>
  <ellipse cx="440" cy="780" rx="120" ry="46" fill="#2d4a2d" transform="rotate(20 440 780)"/>
  <ellipse cx="460" cy="740" rx="90" ry="36" fill="#243e24" transform="rotate(35 460 740)"/>
  <line x1="280" y1="900" x2="280" y2="580" stroke="#3a5a3a" stroke-width="2"/>
  <ellipse cx="216" cy="638" rx="56" ry="22" fill="#3a5a3a" transform="rotate(-25 216 638)"/>
  <ellipse cx="344" cy="614" rx="54" ry="20" fill="#2d4a2d" transform="rotate(25 344 614)"/>
  <circle cx="280" cy="578" r="20" fill="#c8dbc4" opacity="0.15"/>
  <circle cx="280" cy="578" r="10" fill="#c8dbc4" opacity="0.3"/>
  <circle cx="72" cy="64" r="22" fill="#2d4a2d"/>
  <ellipse cx="72" cy="64" rx="7" ry="12" fill="#7a9e72" opacity="0.7"/>
  <text x="104" y="58" font-size="22" font-weight="600" fill="#f0ebe0">Flora</text>
  <text x="104" y="82" font-size="22" font-weight="600" fill="#7a9e72">Vision</text>
  <text x="60" y="178" font-size="48" font-weight="600" fill="#f0ebe0">Добро</text>
  <text x="60" y="234" font-size="48" font-weight="600" fill="#f0ebe0">пожаловать</text>
  <text x="60" y="290" font-size="48" font-style="italic" font-weight="600" fill="#7a9e72">в мир цветов</text>
  <text x="60" y="338" font-size="15" fill="#7a9e72" font-family="sans-serif">Создай аккаунт и начни</text>
  <text x="60" y="360" font-size="15" fill="#7a9e72" font-family="sans-serif">подбирать растения для сада.</text>
  <circle cx="72" cy="418" r="5" fill="#7a9e72"/>
  <text x="88" y="423" font-size="14" fill="#c8dbc4" font-family="sans-serif">Анализ цвета из фото через ИИ</text>
  <circle cx="72" cy="452" r="5" fill="#7a9e72"/>
  <text x="88" y="457" font-size="14" fill="#c8dbc4" font-family="sans-serif">3 400+ растений в базе</text>
  <circle cx="72" cy="486" r="5" fill="#7a9e72"/>
  <text x="88" y="491" font-size="14" fill="#c8dbc4" font-family="sans-serif">Учёт климатической зоны</text>
  <circle cx="72" cy="520" r="5" fill="#7a9e72"/>
  <text x="88" y="525" font-size="14" fill="#c8dbc4" font-family="sans-serif">Карточки ухода за растением</text>
  <rect x="560" width="880" height="900" fill="#f7f3ec"/>
  <rect x="618" y="100" width="762" height="60" rx="30" fill="#e4ddd0"/>
  <rect x="622" y="104" width="370" height="52" rx="26" fill="#1a2e1a"/>
  <text x="807" y="135" font-size="16" fill="#f0ebe0" text-anchor="middle" font-family="sans-serif">Регистрация</text>
  <text x="1098" y="135" font-size="16" fill="#5a6e57" text-anchor="middle" font-family="sans-serif">Войти</text>
  <text x="1000" y="216" font-size="36" font-weight="600" fill="#1a2e1a" text-anchor="middle">Создать аккаунт</text>
  <text x="618" y="270" font-size="13" fill="#5a6e57" font-family="sans-serif">Имя</text>
  <rect x="618" y="280" width="360" height="50" rx="14" fill="white" stroke="#c8dbc4" stroke-width="1"/>
  <text x="638" y="311" font-size="15" fill="#1a2e1a" font-family="sans-serif">Анна</text>
  <text x="998" y="270" font-size="13" fill="#5a6e57" font-family="sans-serif">Фамилия</text>
  <rect x="998" y="280" width="362" height="50" rx="14" fill="white" stroke="#c8dbc4" stroke-width="1"/>
  <text x="1018" y="311" font-size="15" fill="#c8dbc4" font-family="sans-serif">Иванова</text>
  <text x="618" y="356" font-size="13" fill="#5a6e57" font-family="sans-serif">Email</text>
  <rect x="618" y="366" width="762" height="50" rx="14" fill="white" stroke="#7a9e72" stroke-width="2"/>
  <text x="640" y="397" font-size="15" fill="#1a2e1a" font-family="sans-serif">anna@example.com</text>
  <text x="618" y="444" font-size="13" fill="#5a6e57" font-family="sans-serif">Пароль</text>
  <rect x="618" y="454" width="762" height="50" rx="14" fill="white" stroke="#c8dbc4" stroke-width="1"/>
  <text x="640" y="485" font-size="22" fill="#1a2e1a" font-family="sans-serif">••••••••</text>
  <text x="618" y="534" font-size="13" fill="#5a6e57" font-family="sans-serif">Климатическая зона (необязательно)</text>
  <rect x="618" y="544" width="762" height="50" rx="14" fill="white" stroke="#c8dbc4" stroke-width="1"/>
  <text x="640" y="575" font-size="15" fill="#c8dbc4" font-family="sans-serif">Например: зона 5b, Центральная Россия</text>
  <rect x="618" y="614" width="18" height="18" rx="4" fill="#1a2e1a"/>
  <text x="646" y="628" font-size="13" fill="#5a6e57" font-family="sans-serif">Принимаю условия использования</text>
  <rect x="618" y="648" width="762" height="58" rx="29" fill="#1a2e1a"/>
  <text x="999" y="682" font-size="16" fill="#f0ebe0" text-anchor="middle" font-family="sans-serif">Создать аккаунт</text>
  <line x1="618" y1="732" x2="880" y2="732" stroke="#c8dbc4" stroke-width="1"/>
  <text x="999" y="736" font-size="13" fill="#5a6e57" text-anchor="middle" font-family="sans-serif">или</text>
  <line x1="1118" y1="732" x2="1380" y2="732" stroke="#c8dbc4" stroke-width="1"/>
  <rect x="618" y="752" width="762" height="50" rx="25" fill="white" stroke="#c8dbc4" stroke-width="1"/>
  <circle cx="660" cy="777" r="13" fill="#e8e0d0"/>
  <text x="684" y="782" font-size="14" fill="#5a6e57" font-family="sans-serif">Войти через Google</text>
</svg>