<svg viewBox="0 0 1440 900" xmlns="http://www.w3.org/2000/svg" font-family="Georgia, serif">
  <rect width="1440" height="900" fill="#f7f3ec"/>
  <rect width="1440" height="60" fill="#f0ebe0"/><rect y="60" width="1440" height="1" fill="#c8dbc4"/>
  <circle cx="48" cy="30" r="15" fill="#1a2e1a"/>
  <text x="72" y="38" font-size="18" font-weight="600" fill="#1a2e1a">Flora Vision</text>
  <text x="1000" y="38" font-size="14" fill="#5a6e57" font-family="sans-serif">Анна Иванова</text>
  <circle cx="1400" cy="30" r="20" fill="#c8dbc4"/>
  <text x="1400" y="36" font-size="13" font-weight="600" fill="#4a6741" text-anchor="middle" font-family="sans-serif">АИ</text>
  <rect width="310" height="840" y="60" fill="#1a2e1a"/>
  <rect x="18" y="100" width="274" height="120" rx="16" fill="#2d4a2d"/>
  <circle cx="56" cy="150" r="16" fill="#7a9e72"/>
  <text x="56" y="156" font-size="14" font-weight="600" fill="#1a2e1a" text-anchor="middle" font-family="sans-serif">1</text>
  <text x="80" y="142" font-size="10" fill="#7a9e72" font-family="sans-serif" letter-spacing="0.08em">ШАГ 1</text>
  <text x="80" y="162" font-size="18" font-weight="600" fill="#f0ebe0">Фото участка</text>
  <text x="36" y="192" font-size="12" fill="#7a9e72" font-family="sans-serif">Загрузи снимок — мы извлечём</text>
  <text x="36" y="208" font-size="12" fill="#7a9e72" font-family="sans-serif">цвета и наложим круг Иттена</text>
  <line x1="155" y1="220" x2="155" y2="250" stroke="#3a5a3a" stroke-width="1" stroke-dasharray="3 3"/>
  <circle cx="56" cy="272" r="16" fill="none" stroke="#3a5a3a" stroke-width="2"/>
  <text x="56" y="278" font-size="14" fill="#3a5a3a" text-anchor="middle" font-family="sans-serif">2</text>
  <text x="80" y="266" font-size="10" fill="#3a5a3a" font-family="sans-serif">ШАГ 2</text>
  <text x="80" y="284" font-size="18" fill="#5a6e57">Круг Иттена</text>
  <line x1="155" y1="296" x2="155" y2="326" stroke="#3a5a3a" stroke-width="1" stroke-dasharray="3 3"/>
  <circle cx="56" cy="348" r="16" fill="none" stroke="#3a5a3a" stroke-width="2"/>
  <text x="56" y="354" font-size="14" fill="#3a5a3a" text-anchor="middle" font-family="sans-serif">3</text>
  <text x="80" y="342" font-size="10" fill="#3a5a3a" font-family="sans-serif">ШАГ 3</text>
  <text x="80" y="360" font-size="18" fill="#5a6e57">Локация</text>
  <ellipse cx="90" cy="710" rx="90" ry="34" fill="#2d4a2d" transform="rotate(-20 90 710)"/>
  <ellipse cx="220" cy="760" rx="80" ry="30" fill="#243e24" transform="rotate(15 220 760)"/>
  <line x1="155" y1="840" x2="155" y2="680" stroke="#3a5a3a" stroke-width="2"/>
  <ellipse cx="118" cy="712" rx="42" ry="16" fill="#2d4a2d" transform="rotate(-25 118 712)"/>
  <ellipse cx="192" cy="694" rx="40" ry="15" fill="#3a5a3a" transform="rotate(28 192 694)"/>
  <text x="350" y="108" font-size="10" fill="#4a6741" font-family="sans-serif" letter-spacing="0.1em">ШАГ 1 ИЗ 3</text>
  <text x="350" y="160" font-size="52" font-weight="600" fill="#1a2e1a">Загрузи фото</text>
  <text x="350" y="222" font-size="52" font-style="italic" font-weight="600" fill="#4a6741">своего участка</text>
  <text x="350" y="268" font-size="16" fill="#5a6e57" font-family="sans-serif">Алгоритм автоматически извлечёт цветовую палитру из снимка</text>
  <rect x="342" y="296" width="1062" height="288" rx="22" fill="white" stroke="#c8dbc4" stroke-width="1.5" stroke-dasharray="8 5"/>
  <circle cx="873" cy="388" r="52" fill="#e4ddd0"/>
  <rect x="855" y="370" width="36" height="26" rx="5" fill="none" stroke="#4a6741" stroke-width="2.5"/>
  <polygon points="873,360 861,372 885,372" fill="#4a6741"/>
  <line x1="873" y1="360" x2="873" y2="348" stroke="#4a6741" stroke-width="2.5"/>
  <text x="873" y="464" font-size="20" font-weight="500" fill="#1a2e1a" text-anchor="middle">Перетащи фото сюда</text>
  <text x="873" y="492" font-size="15" fill="#5a6e57" text-anchor="middle" font-family="sans-serif">или нажми для выбора файла</text>
  <text x="873" y="518" font-size="13" fill="#a0b89c" text-anchor="middle" font-family="sans-serif">JPG, PNG · до 10 МБ</text>
  <rect x="807" y="538" width="132" height="30" rx="15" fill="#1a2e1a"/>
  <text x="873" y="558" font-size="13" fill="#f0ebe0" text-anchor="middle" font-family="sans-serif">Выбрать файл</text>
  <rect x="342" y="600" width="332" height="96" rx="16" fill="#e4ddd0" stroke="#c8dbc4" stroke-width="1"/>
  <text x="372" y="634" font-size="26" font-family="sans-serif">☀</text>
  <text x="410" y="630" font-size="15" font-weight="500" fill="#1a2e1a" font-family="sans-serif">Хорошее освещение</text>
  <text x="410" y="650" font-size="13" fill="#5a6e57" font-family="sans-serif">Снимай днём без теней</text>
  <rect x="690" y="600" width="332" height="96" rx="16" fill="#e4ddd0" stroke="#c8dbc4" stroke-width="1"/>
  <text x="720" y="634" font-size="26" font-family="sans-serif">⬜</text>
  <text x="758" y="630" font-size="15" font-weight="500" fill="#1a2e1a" font-family="sans-serif">Весь участок</text>
  <text x="758" y="650" font-size="13" fill="#5a6e57" font-family="sans-serif">Широкий план</text>
  <rect x="1038" y="600" width="366" height="96" rx="16" fill="#e4ddd0" stroke="#c8dbc4" stroke-width="1"/>
  <text x="1068" y="634" font-size="26" font-family="sans-serif">◎</text>
  <text x="1106" y="630" font-size="15" font-weight="500" fill="#1a2e1a" font-family="sans-serif">Реальные цвета</text>
  <text x="1106" y="650" font-size="13" fill="#5a6e57" font-family="sans-serif">Без фильтров</text>
  <rect x="342" y="716" width="1062" height="64" rx="32" fill="#1a2e1a"/>
  <text x="873" y="753" font-size="17" fill="#f0ebe0" text-anchor="middle" font-family="sans-serif">Загрузить и продолжить →</text>
</svg>