<svg viewBox="0 0 1440 900" xmlns="http://www.w3.org/2000/svg" font-family="Georgia, serif">
  <rect width="1440" height="900" fill="#f7f3ec"/>
  <rect width="1440" height="60" fill="#f0ebe0"/><rect y="60" width="1440" height="1" fill="#c8dbc4"/>
  <circle cx="48" cy="30" r="15" fill="#1a2e1a"/>
  <text x="72" y="38" font-size="18" font-weight="600" fill="#1a2e1a">Flora Vision</text>
  <rect width="310" height="840" y="60" fill="#1a2e1a"/>
  <circle cx="56" cy="112" r="16" fill="#7a9e72"/>
  <text x="56" y="117" font-size="14" fill="#1a2e1a" text-anchor="middle" font-family="sans-serif">✓</text>
  <text x="80" y="106" font-size="10" fill="#7a9e72" font-family="sans-serif">ШАГ 1</text>
  <text x="80" y="124" font-size="17" fill="#7a9e72">Фото участка</text>
  <line x1="155" y1="134" x2="155" y2="162" stroke="#3a5a3a" stroke-width="1" stroke-dasharray="3 3"/>
  <rect x="18" y="162" width="274" height="130" rx="16" fill="#2d4a2d"/>
  <circle cx="56" cy="204" r="16" fill="#7a9e72"/>
  <text x="56" y="210" font-size="14" font-weight="600" fill="#1a2e1a" text-anchor="middle" font-family="sans-serif">2</text>
  <text x="80" y="198" font-size="10" fill="#7a9e72" font-family="sans-serif">ШАГ 2</text>
  <text x="80" y="218" font-size="18" font-weight="600" fill="#f0ebe0">Круг Иттена</text>
  <text x="36" y="248" font-size="12" fill="#7a9e72" font-family="sans-serif">Цвета с фото пересечены</text>
  <text x="36" y="264" font-size="12" fill="#7a9e72" font-family="sans-serif">с кругом. Выбери гармонию.</text>
  <line x1="155" y1="292" x2="155" y2="320" stroke="#3a5a3a" stroke-width="1" stroke-dasharray="3 3"/>
  <circle cx="56" cy="342" r="16" fill="none" stroke="#3a5a3a" stroke-width="2"/>
  <text x="56" y="348" font-size="14" fill="#3a5a3a" text-anchor="middle" font-family="sans-serif">3</text>
  <text x="80" y="336" font-size="10" fill="#3a5a3a" font-family="sans-serif">ШАГ 3</text>
  <text x="80" y="354" font-size="18" fill="#5a6e57">Локация</text>
  <ellipse cx="90" cy="700" rx="88" ry="32" fill="#2d4a2d" transform="rotate(-20 90 700)"/>
  <ellipse cx="220" cy="750" rx="78" ry="28" fill="#243e24" transform="rotate(15 220 750)"/>
  <line x1="155" y1="840" x2="155" y2="680" stroke="#3a5a3a" stroke-width="2"/>
  <ellipse cx="118" cy="706" rx="40" ry="15" fill="#2d4a2d" transform="rotate(-25 118 706)"/>
  <ellipse cx="192" cy="690" rx="38" ry="14" fill="#3a5a3a" transform="rotate(28 192 690)"/>
  <text x="350" y="108" font-size="10" fill="#4a6741" font-family="sans-serif" letter-spacing="0.1em">ШАГ 2 ИЗ 3 — ЦВЕТОВАЯ ГАРМОНИЯ</text>
  <text x="350" y="164" font-size="52" font-weight="600" fill="#1a2e1a">Круг Иттена</text>
  <text x="350" y="200" font-size="16" fill="#5a6e57" font-family="sans-serif">Мы нашли цвета участка. Выберите тип гармонии — система найдёт партнёров.</text>
  <text x="350" y="242" font-size="11" fill="#5a6e57" font-family="sans-serif" letter-spacing="0.08em">ТИП ГАРМОНИИ</text>
  <rect x="350" y="252" width="190" height="72" rx="16" fill="#1a2e1a"/>
  <text x="445" y="282" font-size="15" font-weight="500" fill="#f0ebe0" text-anchor="middle" font-family="sans-serif">Аналогичная</text>
  <text x="445" y="304" font-size="12" fill="#7a9e72" text-anchor="middle" font-family="sans-serif">соседи по кругу</text>
  <rect x="552" y="252" width="190" height="72" rx="16" fill="#e4ddd0" stroke="#c8dbc4" stroke-width="1"/>
  <text x="647" y="282" font-size="15" fill="#1a2e1a" text-anchor="middle" font-family="sans-serif">Контрастная</text>
  <text x="647" y="304" font-size="12" fill="#5a6e57" text-anchor="middle" font-family="sans-serif">противоположность</text>
  <rect x="754" y="252" width="160" height="72" rx="16" fill="#e4ddd0" stroke="#c8dbc4" stroke-width="1"/>
  <text x="834" y="282" font-size="15" fill="#1a2e1a" text-anchor="middle" font-family="sans-serif">Триада</text>
  <text x="834" y="304" font-size="12" fill="#5a6e57" text-anchor="middle" font-family="sans-serif">три угла 120°</text>
  <rect x="926" y="252" width="190" height="72" rx="16" fill="#e4ddd0" stroke="#c8dbc4" stroke-width="1"/>
  <text x="1021" y="282" font-size="15" fill="#1a2e1a" text-anchor="middle" font-family="sans-serif">Расщеплённая</text>
  <text x="1021" y="304" font-size="12" fill="#5a6e57" text-anchor="middle" font-family="sans-serif">сплит-комплемент</text>
  <!-- ITTEN WHEEL centered -->
  <path d="M 1050 680 L 1050 500 A 180 180 0 0 1 1138 523 Z" fill="#E8392A"/>
  <path d="M 1050 680 L 1138 523 A 180 180 0 0 1 1194 618 Z" fill="#F06020"/>
  <path d="M 1050 680 L 1194 618 A 180 180 0 0 1 1200 698 Z" fill="#F09020"/>
  <path d="M 1050 680 L 1200 698 A 180 180 0 0 1 1144 780 Z" fill="#E8C020"/>
  <path d="M 1050 680 L 1144 780 A 180 180 0 0 1 1050 810 Z" fill="#D8D020"/>
  <path d="M 1050 680 L 1050 810 A 180 180 0 0 1 956 780 Z" fill="#90C030"/>
  <path d="M 1050 680 L 956 780 A 180 180 0 0 1 900 698 Z" fill="#38A840" stroke="#f7f3ec" stroke-width="3"/>
  <path d="M 1050 680 L 900 698 A 180 180 0 0 1 906 618 Z" fill="#20A898"/>
  <path d="M 1050 680 L 906 618 A 180 180 0 0 1 962 523 Z" fill="#2878C8" stroke="#f7f3ec" stroke-width="3"/>
  <path d="M 1050 680 L 962 523 A 180 180 0 0 1 1050 500 Z" fill="#6848B8"/>
  <!-- inner ring -->
  <path d="M 1050 680 L 1050 564 A 116 116 0 0 1 1107 580 Z" fill="#C8706A"/>
  <path d="M 1050 680 L 1107 580 A 116 116 0 0 1 1142 650 Z" fill="#D09060"/>
  <path d="M 1050 680 L 1142 650 A 116 116 0 0 1 1137 716 Z" fill="#D0B068"/>
  <path d="M 1050 680 L 1137 716 A 180 180 0 0 1 1097 774 Z" fill="#C8C870"/>
  <path d="M 1050 680 L 1097 774 A 116 116 0 0 1 1050 788 Z" fill="#B0B870"/>
  <path d="M 1050 680 L 1050 788 A 116 116 0 0 1 1003 774 Z" fill="#80A870"/>
  <path d="M 1050 680 L 1003 774 A 116 116 0 0 1 963 716 Z" fill="#60A88A"/>
  <path d="M 1050 680 L 963 716 A 116 116 0 0 1 960 650 Z" fill="#60A8A8"/>
  <path d="M 1050 680 L 960 650 A 116 116 0 0 1 995 580 Z" fill="#6888B8"/>
  <path d="M 1050 680 L 995 580 A 116 116 0 0 1 1050 564 Z" fill="#9878B8"/>
  <circle cx="1050" cy="680" r="80" fill="#f7f3ec"/>
  <text x="1050" y="670" font-size="15" font-weight="500" fill="#1a2e1a" text-anchor="middle">Аналогичная</text>
  <text x="1050" y="692" font-size="13" fill="#5a6e57" text-anchor="middle" font-family="sans-serif">гармония</text>
  <text x="1050" y="710" font-size="12" fill="#7a9e72" text-anchor="middle" font-family="sans-serif">✓ выбрано</text>
  <!-- harmony lines -->
  <line x1="1050" y1="680" x2="912" y2="768" stroke="#1a2e1a" stroke-width="2" stroke-dasharray="5 4" opacity="0.6"/>
  <line x1="1050" y1="680" x2="902" y2="658" stroke="#1a2e1a" stroke-width="2" stroke-dasharray="5 4" opacity="0.6"/>
  <line x1="1050" y1="680" x2="916" y2="564" stroke="#1a2e1a" stroke-width="2" stroke-dasharray="5 4" opacity="0.6"/>
  <circle cx="912" cy="768" r="10" fill="white" stroke="#1a2e1a" stroke-width="2.5"/>
  <circle cx="902" cy="658" r="10" fill="white" stroke="#1a2e1a" stroke-width="2.5"/>
  <circle cx="916" cy="564" r="10" fill="white" stroke="#1a2e1a" stroke-width="2.5"/>
  <circle cx="912" cy="768" r="6" fill="#38A840"/>
  <circle cx="916" cy="564" r="6" fill="#2878C8"/>
  <text x="840" y="786" font-size="12" fill="#4a6741" font-family="sans-serif">← с фото</text>
  <text x="840" y="560" font-size="12" fill="#4a6741" font-family="sans-serif">← с фото</text>
  <!-- result palette -->
  <text x="350" y="380" font-size="11" fill="#5a6e57" font-family="sans-serif" letter-spacing="0.08em">ИТОГОВАЯ ПАЛИТРА ДЛЯ ПОДБОРА</text>
  <text x="350" y="404" font-size="10" fill="#a0b89c" font-family="sans-serif">С ФОТО</text>
  <rect x="350" y="412" width="64" height="64" rx="14" fill="#38A840"/>
  <rect x="424" y="412" width="64" height="64" rx="14" fill="#2878C8"/>
  <rect x="498" y="412" width="64" height="64" rx="14" fill="#6e8060"/>
  <text x="580" y="448" font-size="26" fill="#c8dbc4" font-family="sans-serif">+</text>
  <text x="616" y="404" font-size="10" fill="#a0b89c" font-family="sans-serif">ПАРТНЁРЫ ИТТЕНА</text>
  <rect x="616" y="412" width="64" height="64" rx="14" fill="#90C030"/>
  <rect x="690" y="412" width="64" height="64" rx="14" fill="#20A898"/>
  <rect x="764" y="412" width="64" height="64" rx="14" fill="#6848B8"/>
  <rect x="350" y="496" width="478" height="64" rx="16" fill="#e4ddd0" stroke="#c8dbc4" stroke-width="1"/>
  <text x="376" y="520" font-size="14" font-weight="500" fill="#1a2e1a" font-family="sans-serif">Аналогичная гармония</text>
  <text x="376" y="542" font-size="13" fill="#5a6e57" font-family="sans-serif">Соседние цвета создают спокойный единый образ</text>
  <rect x="350" y="580" width="478" height="62" rx="31" fill="#1a2e1a"/>
  <text x="589" y="616" font-size="16" fill="#f0ebe0" text-anchor="middle" font-family="sans-serif">Далее: указать локацию →</text>
</svg>