<svg viewBox="0 0 1440 900" xmlns="http://www.w3.org/2000/svg" font-family="Georgia, serif">
  <rect width="1440" height="900" fill="#f7f3ec"/>
  <rect width="1440" height="60" fill="#f0ebe0"/><rect y="60" width="1440" height="1" fill="#c8dbc4"/>
  <circle cx="48" cy="30" r="15" fill="#1a2e1a"/>
  <text x="72" y="38" font-size="18" font-weight="600" fill="#1a2e1a">Flora Vision</text>
  <rect width="310" height="840" y="60" fill="#1a2e1a"/>
  <circle cx="56" cy="108" r="16" fill="#7a9e72"/>
  <text x="56" y="113" font-size="14" fill="#1a2e1a" text-anchor="middle" font-family="sans-serif">✓</text>
  <text x="80" y="102" font-size="10" fill="#7a9e72" font-family="sans-serif">ШАГ 1</text>
  <text x="80" y="120" font-size="17" fill="#7a9e72">Фото участка</text>
  <line x1="155" y1="130" x2="155" y2="158" stroke="#3a5a3a" stroke-width="1" stroke-dasharray="3 3"/>
  <circle cx="56" cy="180" r="16" fill="#7a9e72"/>
  <text x="56" y="185" font-size="14" fill="#1a2e1a" text-anchor="middle" font-family="sans-serif">✓</text>
  <text x="80" y="174" font-size="10" fill="#7a9e72" font-family="sans-serif">ШАГ 2</text>
  <text x="80" y="192" font-size="17" fill="#7a9e72">Круг Иттена</text>
  <circle cx="80" cy="210" r="7" fill="#38A840"/>
  <circle cx="96" cy="210" r="7" fill="#2878C8"/>
  <circle cx="112" cy="210" r="7" fill="#90C030"/>
  <line x1="155" y1="220" x2="155" y2="248" stroke="#3a5a3a" stroke-width="1" stroke-dasharray="3 3"/>
  <rect x="18" y="248" width="274" height="120" rx="16" fill="#2d4a2d"/>
  <circle cx="56" cy="292" r="16" fill="#7a9e72"/>
  <text x="56" y="298" font-size="14" font-weight="600" fill="#1a2e1a" text-anchor="middle" font-family="sans-serif">3</text>
  <text x="80" y="286" font-size="10" fill="#7a9e72" font-family="sans-serif">ШАГ 3</text>
  <text x="80" y="306" font-size="18" font-weight="600" fill="#f0ebe0">Локация</text>
  <text x="36" y="336" font-size="12" fill="#7a9e72" font-family="sans-serif">Укажи точку на карте</text>
  <text x="36" y="352" font-size="12" fill="#7a9e72" font-family="sans-serif">для учёта климата</text>
  <ellipse cx="90" cy="680" rx="88" ry="32" fill="#2d4a2d" transform="rotate(-20 90 680)"/>
  <ellipse cx="220" cy="730" rx="76" ry="28" fill="#243e24" transform="rotate(15 220 730)"/>
  <line x1="155" y1="820" x2="155" y2="660" stroke="#3a5a3a" stroke-width="2"/>
  <ellipse cx="118" cy="688" rx="40" ry="15" fill="#2d4a2d" transform="rotate(-25 118 688)"/>
  <ellipse cx="192" cy="672" rx="38" ry="14" fill="#3a5a3a" transform="rotate(28 192 672)"/>
  <text x="350" y="108" font-size="10" fill="#4a6741" font-family="sans-serif" letter-spacing="0.1em">ШАГ 3 ИЗ 3 — ПОСЛЕДНИЙ</text>
  <text x="350" y="164" font-size="52" font-weight="600" fill="#1a2e1a">Где находится</text>
  <text x="350" y="226" font-size="52" font-style="italic" font-weight="600" fill="#4a6741">ваш участок?</text>
  <text x="350" y="272" font-size="16" fill="#5a6e57" font-family="sans-serif">Нужно для учёта климатической зоны, сезонности и зимостойкости</text>
  <rect x="342" y="298" width="1062" height="56" rx="18" fill="white" stroke="#c8dbc4" stroke-width="1"/>
  <circle cx="374" cy="326" r="11" fill="none" stroke="#7a9e72" stroke-width="2"/>
  <line x1="382" y1="334" x2="390" y2="342" stroke="#7a9e72" stroke-width="2" stroke-linecap="round"/>
  <text x="404" y="332" font-size="16" fill="#1a2e1a" font-family="sans-serif">Москва, ул. Садовая 12</text>
  <rect x="1278" y="308" width="116" height="36" rx="14" fill="#1a2e1a"/>
  <text x="1336" y="331" font-size="14" fill="#f0ebe0" text-anchor="middle" font-family="sans-serif">Найти</text>
  <rect x="342" y="368" width="360" height="44" rx="14" fill="#e4ddd0" stroke="#c8dbc4" stroke-width="1"/>
  <circle cx="368" cy="390" r="9" fill="none" stroke="#4a6741" stroke-width="2"/>
  <circle cx="368" cy="390" r="3" fill="#4a6741"/>
  <text x="386" y="395" font-size="14" fill="#4a6741" font-family="sans-serif">Определить моё местоположение</text>
  <!-- MAP -->
  <rect x="342" y="426" width="1062" height="316" rx="22" fill="#d0e8c0" stroke="#c8dbc4" stroke-width="1"/>
  <line x1="342" y1="572" x2="1404" y2="572" stroke="#b8d4a8" stroke-width="12"/>
  <line x1="342" y1="640" x2="1404" y2="640" stroke="#b8d4a8" stroke-width="8"/>
  <line x1="700" y1="426" x2="700" y2="742" stroke="#b8d4a8" stroke-width="10"/>
  <line x1="1000" y1="426" x2="1000" y2="742" stroke="#b8d4a8" stroke-width="8"/>
  <rect x="360" y="442" width="320" height="118" rx="10" fill="#c0d8b0"/>
  <rect x="360" y="584" width="320" height="46" rx="10" fill="#c0d8b0"/>
  <rect x="360" y="652" width="320" height="78" rx="10" fill="#c0d8b0"/>
  <rect x="718" y="442" width="264" height="118" rx="10" fill="#c0d8b0"/>
  <rect x="718" y="584" width="264" height="148" rx="10" fill="#c0d8b0"/>
  <rect x="1018" y="442" width="370" height="118" rx="10" fill="#c0d8b0"/>
  <rect x="1018" y="584" width="370" height="148" rx="10" fill="#c0d8b0"/>
  <!-- PIN -->
  <ellipse cx="873" cy="565" rx="18" ry="6" fill="#1a2e1a" opacity="0.2"/>
  <circle cx="873" cy="530" r="24" fill="#1a2e1a"/>
  <circle cx="873" cy="530" r="10" fill="#f0ebe0"/>
  <polygon points="873,554 853,530 893,530" fill="#1a2e1a"/>
  <!-- popup -->
  <rect x="900" y="500" width="200" height="52" rx="14" fill="white" stroke="#c8dbc4" stroke-width="1"/>
  <text x="916" y="521" font-size="13" font-weight="500" fill="#1a2e1a" font-family="sans-serif">ул. Садовая, 12</text>
  <text x="916" y="540" font-size="12" fill="#5a6e57" font-family="sans-serif">Москва · зона 5b</text>
  <!-- climate + cta -->
  <rect x="342" y="758" width="250" height="60" rx="16" fill="#e4ddd0" stroke="#c8dbc4" stroke-width="1"/>
  <text x="360" y="780" font-size="12" fill="#5a6e57" font-family="sans-serif">Климатическая зона</text>
  <text x="360" y="802" font-size="20" font-weight="600" fill="#1a2e1a">5b · Москва</text>
  <rect x="610" y="758" width="260" height="60" rx="16" fill="#e4ddd0" stroke="#c8dbc4" stroke-width="1"/>
  <text x="628" y="780" font-size="12" fill="#5a6e57" font-family="sans-serif">Сезон посадки</text>
  <text x="628" y="802" font-size="20" font-weight="600" fill="#1a2e1a">Май — Сентябрь</text>
  <rect x="1154" y="758" width="250" height="60" rx="30" fill="#1a2e1a"/>
  <text x="1279" y="793" font-size="17" font-weight="500" fill="#f0ebe0" text-anchor="middle" font-family="sans-serif">Подобрать →</text>
</svg>